<svg width="30" height="31" fill="none" xmlns="http://www.w3.org/2000/svg"><path fill-rule="evenodd" clip-rule="evenodd" d="M23.375 5.95a2.312 2.312 0 00-2.402.39.505.505 0 01-.03.036l-3.716 3.93a.5.5 0 01-.535.127L6.68 6.792 4.523 8.948l7.93 5.287a.5.5 0 01.076.77l-2.812 2.812a.5.5 0 01-.354.146H6.758L4.66 20.06l4.137 1.4a.5.5 0 01.313.313l1.405 4.143 2.097-2.098v-2.605a.5.5 0 01.164-.37l2.835-2.576a.5.5 0 01.75.088l5.262 7.703 2.16-2.16-3.64-10.014a.5.5 0 01.127-.535l3.811-3.579a.507.507 0 01.042-.047 2.312 2.312 0 00-.75-3.774zm1.616 4.308a3.314 3.314 0 00-4.845-4.512.503.503 0 00-.077.098l-3.343 3.537L6.722 5.743a.5.5 0 00-.525.117L3.385 8.672a.5.5 0 00.076.77l7.93 5.286-2.235 2.235H6.551a.5.5 0 00-.354.147l-2.812 2.812a.5.5 0 00.193.827l4.665 1.579 1.584 4.67a.5.5 0 00.827.194l2.813-2.813a.5.5 0 00.146-.353v-2.592l2.246-2.04 5.279 7.726a.5.5 0 00.766.072l2.813-2.813a.5.5 0 00.116-.524l-3.637-10.003 3.703-3.477a.5.5 0 00.092-.117z" fill="#5253ED"/></svg>