<svg width="30" height="31" fill="none" xmlns="http://www.w3.org/2000/svg"><path fill-rule="evenodd" clip-rule="evenodd" d="M10 2.588a.5.5 0 01.5.5v3.75a.5.5 0 01-1 0v-3.75a.5.5 0 01.5-.5zm10 0a.5.5 0 01.5.5v3.75a.5.5 0 01-1 0v-3.75a.5.5 0 01.5-.5zM3.875 11.951a.5.5 0 01.5-.5h21.25a.5.5 0 110 1H4.375a.5.5 0 01-.5-.5z" fill="#5253ED"/><path fill-rule="evenodd" clip-rule="evenodd" d="M5.6 7.022c-.9.97-1.35 2.393-1.35 4.19v10.626c0 1.798.45 3.22 1.35 4.19.896.965 2.308 1.56 4.4 1.56h10c2.092 0 3.504-.595 4.4-1.56.9-.97 1.35-2.392 1.35-4.19V11.213c0-1.798-.45-3.22-1.35-4.191-.896-.964-2.308-1.56-4.4-1.56H10c-2.092 0-3.504.596-4.4 1.56zm-.732-.68c1.136-1.224 2.85-1.88 5.132-1.88h10c2.283 0 3.996.656 5.132 1.88 1.13 1.216 1.618 2.92 1.618 4.87v10.626c0 1.951-.488 3.654-1.618 4.871-1.136 1.224-2.85 1.879-5.132 1.879H10c-2.283 0-3.996-.655-5.132-1.879-1.13-1.217-1.618-2.92-1.618-4.871V11.213c0-1.952.488-3.655 1.618-4.872z" fill="#5253ED"/><path fill-rule="evenodd" clip-rule="evenodd" d="M18.867 17.713a.75.75 0 01.75-.75h.011a.75.75 0 010 1.5h-.01a.75.75 0 01-.75-.75zm0 3.75a.75.75 0 01.75-.75h.011a.75.75 0 010 1.5h-.01a.75.75 0 01-.75-.75zm-4.621-3.75a.75.75 0 01.75-.75h.011a.75.75 0 010 1.5h-.01a.75.75 0 01-.75-.75zm0 3.75a.75.75 0 01.75-.75h.011a.75.75 0 010 1.5h-.01a.75.75 0 01-.75-.75zm-4.629-3.75a.75.75 0 01.75-.75h.011a.75.75 0 010 1.5h-.01a.75.75 0 01-.75-.75zm0 3.75a.75.75 0 01.75-.75h.011a.75.75 0 010 1.5h-.01a.75.75 0 01-.75-.75z" fill="#5253ED"/></svg>