<svg width="18" height="19" fill="none" xmlns="http://www.w3.org/2000/svg"><path d="M9 16.338a6.75 6.75 0 100-13.5 6.75 6.75 0 000 13.5z" fill="#B7BBC6"/><path fill-rule="evenodd" clip-rule="evenodd" d="M9 3.338a6.25 6.25 0 100 12.5 6.25 6.25 0 000-12.5zm-7.25 6.25a7.25 7.25 0 1114.5 0 7.25 7.25 0 01-14.5 0z" fill="#B7BBC6"/><path fill-rule="evenodd" clip-rule="evenodd" d="M12.817 7.21a1 1 0 01-.033 1.414L8.66 12.56a1 1 0 01-1.38 0l-2.063-1.969a1 1 0 011.38-1.446l1.373 1.31 3.434-3.279a1 1 0 011.414.033z" fill="#fff"/></svg>