<svg width="34" height="35" fill="none" xmlns="http://www.w3.org/2000/svg"><path fill-rule="evenodd" clip-rule="evenodd" d="M12.413 4.503c1.325-1.325 3.308-1.831 5.86-1.831h5.95c2.554 0 4.536.506 5.861 1.831 1.325 1.325 1.831 3.307 1.831 5.86v5.95c0 2.554-.506 4.536-1.83 5.861-1.326 1.325-3.308 1.831-5.861 1.831h-1.559a.75.75 0 01-.75-.75v-4.392c0-2.405-.485-3.893-1.391-4.8-.907-.905-2.395-1.391-4.8-1.391h-4.392a.75.75 0 01-.75-.75v-1.559c0-2.553.506-4.535 1.831-5.86zm1.06 1.06c-.905.907-1.391 2.395-1.391 4.8v.809h3.642c2.553 0 4.535.506 5.86 1.831 1.325 1.325 1.831 3.307 1.831 5.86v3.642h.809c2.405 0 3.893-.485 4.8-1.392.906-.906 1.391-2.394 1.391-4.8v-5.95c0-2.405-.485-3.893-1.391-4.8-.907-.905-2.395-1.391-4.8-1.391h-5.95c-2.406 0-3.894.486-4.8 1.392z" fill="#fff"/><path fill-rule="evenodd" clip-rule="evenodd" d="M3.913 13.003c1.325-1.325 3.308-1.831 5.86-1.831h5.95c2.554 0 4.536.506 5.861 1.831 1.325 1.325 1.831 3.307 1.831 5.86v5.95c0 2.554-.506 4.536-1.83 5.861-1.326 1.325-3.308 1.831-5.861 1.831h-5.95c-2.553 0-4.536-.506-5.86-1.83-1.326-1.326-1.832-3.308-1.832-5.861v-5.95c0-2.554.506-4.536 1.831-5.861zm1.06 1.06c-.905.907-1.391 2.395-1.391 4.8v5.95c0 2.406.486 3.894 1.392 4.8.906.907 2.394 1.392 4.8 1.392h5.95c2.405 0 3.893-.485 4.8-1.392.906-.906 1.391-2.394 1.391-4.8v-5.95c0-2.405-.485-3.893-1.391-4.8-.907-.905-2.395-1.391-4.8-1.391h-5.95c-2.405 0-3.894.486-4.8 1.392z" fill="#fff"/><path fill-rule="evenodd" clip-rule="evenodd" d="M17.416 18.545a.75.75 0 01.002 1.06l-5.511 5.526a.75.75 0 01-1.062 0L8.083 22.37a.75.75 0 011.06-1.06l2.232 2.23 4.98-4.992a.75.75 0 011.061-.002z" fill="#fff"/></svg>