<svg width="34" height="35" fill="none" xmlns="http://www.w3.org/2000/svg"><path fill-rule="evenodd" clip-rule="evenodd" d="M4.604 5.192c1.803-1.804 4.53-2.522 8.145-2.522h2.833a.75.75 0 010 1.5h-2.833c-3.468 0-5.7.698-7.085 2.082C4.28 7.637 3.582 9.87 3.582 13.337v8.5c0 3.467.698 5.7 2.082 7.084 1.385 1.384 3.617 2.082 7.085 2.082h8.5c3.467 0 5.7-.698 7.084-2.082 1.384-1.384 2.082-3.617 2.082-7.084v-2.834a.75.75 0 111.5 0v2.834c0 3.615-.718 6.341-2.521 8.145-1.804 1.803-4.53 2.521-8.145 2.521h-8.5c-3.616 0-6.342-.718-8.145-2.521-1.803-1.804-2.522-4.53-2.522-8.145v-8.5c0-3.616.719-6.342 2.522-8.145z" fill="#fff"/><path fill-rule="evenodd" clip-rule="evenodd" d="M25.807 2.334c1.453-.143 2.93.488 4.443 2.001 1.513 1.513 2.144 2.99 2.001 4.443-.139 1.413-.994 2.61-2 3.616L19.077 23.566c-.29.28-.678.534-1.061.726-.382.192-.82.355-1.224.413l-4.265.609h-.003c-.97.134-1.873-.132-2.5-.757-.628-.625-.896-1.528-.753-2.501v-.002l.608-4.259v-.001c.058-.411.22-.852.413-1.236.193-.384.449-.773.735-1.06L22.19 4.335c1.007-1.006 2.203-1.862 3.616-2zm.147 1.493c-.896.088-1.782.648-2.702 1.569L12.089 16.559c-.14.139-.309.38-.456.673a2.69 2.69 0 00-.267.77v.003l-.61 4.264v.003c-.084.57.08.977.327 1.223.248.246.661.412 1.235.334h.002l4.26-.61c.19-.027.469-.119.763-.267a2.97 2.97 0 00.688-.46L29.19 11.333c.92-.92 1.48-1.806 1.568-2.702.085-.856-.248-1.915-1.569-3.235-1.32-1.32-2.379-1.653-3.235-1.57z" fill="#fff"/><path fill-rule="evenodd" clip-rule="evenodd" d="M20.919 5.745a.75.75 0 01.924.52 9.371 9.371 0 006.481 6.479.75.75 0 01-.409 1.443A10.871 10.871 0 0120.4 6.669a.75.75 0 01.52-.924z" fill="#fff"/></svg>