<svg width="34" height="35" fill="none" xmlns="http://www.w3.org/2000/svg"><path fill-rule="evenodd" clip-rule="evenodd" d="M20.77 2.777c1.598.54 2.685 2.297 2.33 3.962l-.705 4.506c-.072.524.27.84.675.84h5.667c1.265 0 2.355.51 3.012 1.402.659.894.813 2.078.39 3.274l-3.39 10.308c-.268 1.04-.953 1.913-1.783 2.52-.837.613-1.874.995-2.904.995h-5.384a6.284 6.284 0 01-1.658-.241c-.525-.15-1.11-.396-1.526-.791l-4.358-3.375.918-1.186 4.43 3.43.033.033c.15.15.466.318.915.447.432.123.894.183 1.247.183h5.383c.67 0 1.403-.255 2.018-.705.615-.45 1.06-1.055 1.22-1.702l.008-.026 3.41-10.377.004-.009c.28-.784.15-1.438-.18-1.888-.335-.454-.946-.793-1.805-.793H23.07c-1.293 0-2.367-1.1-2.159-2.556l.001-.01.713-4.556.005-.024c.194-.873-.41-1.93-1.347-2.242l-.013-.004-.013-.005c-.37-.139-.824-.127-1.264.024-.445.153-.791.42-.965.681l-.002.002-5.808 8.642-1.245-.837 5.806-8.639.001-.001c.393-.588 1.037-1.03 1.726-1.266.689-.237 1.504-.297 2.264-.016z" fill="#fff"/><path fill-rule="evenodd" clip-rule="evenodd" d="M5.553 10.163c-.234.216-.432.631-.432 1.538v13.884c0 .907.198 1.322.432 1.538.249.23.717.403 1.651.403h1.417c.934 0 1.403-.173 1.652-.403.234-.216.431-.631.431-1.538V11.7c0-.907-.197-1.322-.431-1.538-.25-.23-.718-.403-1.652-.403H7.204c-.934 0-1.402.173-1.651.403zM4.535 9.061c.672-.62 1.62-.801 2.67-.801H8.62c1.05 0 1.997.18 2.67.8.686.635.913 1.565.913 2.641v13.884c0 1.076-.227 2.007-.914 2.64-.672.62-1.62.801-2.669.801H7.204c-1.049 0-1.997-.18-2.669-.8-.686-.634-.914-1.565-.914-2.641V11.7c0-1.076.228-2.006.914-2.64z" fill="#fff"/></svg>