<svg width="48" height="37" fill="none" xmlns="http://www.w3.org/2000/svg"><path d="M0 34.588a2 2 0 002 2h16.92a2 2 0 002-2V2.792c0-1.777-2.143-2.671-3.406-1.422L.594 18.11A2 2 0 000 19.532v15.056z" fill="url(#paint0_linear_878_468)"/><path d="M27.673 18.11a2 2 0 00-.593 1.422v15.056a2 2 0 002 2H46a2 2 0 002-2V2.792c0-1.777-2.144-2.671-3.407-1.422l-16.92 16.74z" fill="url(#paint1_linear_878_468)"/><defs><linearGradient id="paint0_linear_878_468" x1="6.15" y1="-2" x2="39.86" y2="9.041" gradientUnits="userSpaceOnUse"><stop stop-color="#7576FF"/><stop offset="1" stop-color="#3A3BE0"/></linearGradient><linearGradient id="paint1_linear_878_468" x1="6.15" y1="-2" x2="39.86" y2="9.041" gradientUnits="userSpaceOnUse"><stop stop-color="#7576FF"/><stop offset="1" stop-color="#3A3BE0"/></linearGradient></defs></svg>