<svg width="22" height="23" fill="none" xmlns="http://www.w3.org/2000/svg"><g clip-path="url(#clip0_878_811)"><path fill-rule="evenodd" clip-rule="evenodd" d="M22 11.588c0 6.075-4.925 11-11 11s-11-4.925-11-11 4.925-11 11-11 11 4.925 11 11zm-10.606-2.88a523.96 523.96 0 00-6.415 2.764c-.52.207-.793.41-.818.607-.042.335.377.467.948.647l.24.076c.562.183 1.318.396 1.71.405.357.007.754-.14 1.193-.44 2.996-2.023 4.543-3.046 4.64-3.068.069-.015.164-.035.228.022.064.058.058.166.051.195-.041.177-1.687 1.707-2.539 2.498-.265.247-.453.422-.492.462a8.84 8.84 0 01-.258.256c-.522.503-.914.88.021 1.496.45.296.809.541 1.167.785.392.267.783.533 1.288.864.129.085.252.172.372.258.455.325.865.616 1.37.57.295-.027.598-.303.752-1.128.365-1.948 1.081-6.169 1.247-7.908a1.937 1.937 0 00-.019-.433.463.463 0 00-.156-.298c-.132-.107-.336-.13-.427-.128-.413.007-1.048.228-4.103 1.499z" fill="#fff"/></g><defs><clipPath id="clip0_878_811"><path fill="#fff" transform="translate(0 .588)" d="M0 0h22v22H0z"/></clipPath></defs></svg>