<svg width="24" height="25" fill="none" xmlns="http://www.w3.org/2000/svg"><path fill-rule="evenodd" clip-rule="evenodd" d="M3.271 3.86C4.536 2.594 6.451 2.087 9 2.087h6c2.55 0 4.464.507 5.729 1.771C21.993 5.124 22.5 7.04 22.5 9.588v6c0 2.55-.507 4.464-1.771 5.728-1.265 1.265-3.18 1.772-5.729 1.772H9c-2.55 0-4.464-.507-5.729-1.772C2.007 20.052 1.5 18.137 1.5 15.588v-6c0-2.55.507-4.464 1.771-5.729zm.708.706C2.993 5.552 2.5 7.137 2.5 9.588v6c0 2.45.493 4.036 1.479 5.021.985.986 2.57 1.479 5.021 1.479h6c2.45 0 4.036-.493 5.021-1.479.986-.985 1.479-2.57 1.479-5.021v-6c0-2.45-.493-4.036-1.479-5.022-.985-.985-2.57-1.478-5.021-1.478H9c-2.45 0-4.036.493-5.021 1.478z" fill="#fff"/><path fill-rule="evenodd" clip-rule="evenodd" d="M16.604 9.405a.5.5 0 010 .707l-5.67 5.66a.5.5 0 01-.708 0l-2.83-2.83a.5.5 0 11.708-.708l2.476 2.477 5.317-5.307a.5.5 0 01.707 0z" fill="#fff"/></svg>