<svg width="34" height="35" fill="none" xmlns="http://www.w3.org/2000/svg"><path fill-rule="evenodd" clip-rule="evenodd" d="M3.718 7.14c1.301-1.3 3.37-1.636 6.197-1.636h14.167c2.828 0 4.896.335 6.197 1.636 1.301 1.301 1.636 3.37 1.636 6.197v1.417a.75.75 0 01-.75.75 2.793 2.793 0 00-2.791 2.792c0 1.54 1.25 2.791 2.791 2.791a.75.75 0 01.75.75c0 2.828-.335 4.896-1.636 6.197-1.301 1.301-3.369 1.637-6.197 1.637H9.915c-2.828 0-4.896-.336-6.197-1.637-1.3-1.3-1.636-3.369-1.636-6.197v-.708a.75.75 0 01.75-.75 2.793 2.793 0 000-5.583.75.75 0 01-.75-.75v-.709c0-2.828.335-4.896 1.636-6.197zM4.78 8.2c-.824.825-1.197 2.299-1.197 5.137v.024a4.294 4.294 0 013.542 4.226 4.294 4.294 0 01-3.542 4.227v.023c0 2.839.373 4.313 1.197 5.137.824.824 2.298 1.197 5.136 1.197h14.167c2.839 0 4.312-.373 5.136-1.197.756-.756 1.132-2.056 1.19-4.454a4.295 4.295 0 01-3.534-4.224 4.294 4.294 0 013.541-4.227v-.732c0-2.838-.373-4.312-1.197-5.136-.824-.824-2.297-1.197-5.136-1.197H9.915c-2.838 0-4.312.373-5.136 1.197z" fill="#fff"/><path fill-rule="evenodd" clip-rule="evenodd" d="M14.164 5.504a.75.75 0 01.75.75v2.833a.75.75 0 01-1.5 0V6.254a.75.75 0 01.75-.75zm0 8.5a.75.75 0 01.75.75v5.667a.75.75 0 01-1.5 0v-5.667a.75.75 0 01.75-.75zm0 11.333a.75.75 0 01.75.75v2.834a.75.75 0 01-1.5 0v-2.834a.75.75 0 01.75-.75z" fill="#fff"/></svg>