<svg width="14" height="15" fill="none" xmlns="http://www.w3.org/2000/svg"><path fill-rule="evenodd" clip-rule="evenodd" d="M2.89 3.46a34.958 34.958 0 013.515-.177c1.965 0 3.936.1 5.894.294a.5.5 0 01-.098.995 58.825 58.825 0 00-5.796-.289 33.97 33.97 0 00-3.415.173l-1.19.116a.5.5 0 11-.098-.995l1.19-.116z" fill="#fff"/><path fill-rule="evenodd" clip-rule="evenodd" d="M5.579 2.805l-.129.764a.5.5 0 11-.986-.165l.128-.765.008-.043c.04-.24.1-.613.35-.896.295-.334.74-.446 1.285-.446h1.528c.553 0 .997.121 1.289.458.25.288.31.661.348.898l.005.036.128.757a.5.5 0 01-.986.167l-.128-.761c-.05-.304-.08-.392-.122-.442-.014-.016-.101-.113-.534-.113H6.235c-.44 0-.524.095-.535.107-.04.045-.068.127-.122.444zM2.972 5.419a.5.5 0 01.53.467l.38 5.873c.016.235.03.417.062.575a.72.72 0 00.121.31c.08.105.299.276 1.062.276h3.745c.764 0 .982-.17 1.062-.275a.737.737 0 00.122-.31 5 5 0 00.062-.577l.379-5.872a.5.5 0 01.998.064l-.38 5.877v.013c-.016.218-.033.463-.08.691a1.72 1.72 0 01-.308.723c-.369.48-.99.666-1.855.666H5.127c-.864 0-1.486-.186-1.855-.666a1.72 1.72 0 01-.308-.723 5.496 5.496 0 01-.079-.691v-.016l-.38-5.874a.5.5 0 01.467-.531z" fill="#fff"/><path fill-rule="evenodd" clip-rule="evenodd" d="M5.527 10.213a.5.5 0 01.5-.5H7.97a.5.5 0 110 1H6.027a.5.5 0 01-.5-.5zm-.484-2.334a.5.5 0 01.5-.5H8.46a.5.5 0 110 1H5.543a.5.5 0 01-.5-.5z" fill="#fff"/></svg>