<svg width="34" height="35" fill="none" xmlns="http://www.w3.org/2000/svg"><path fill-rule="evenodd" clip-rule="evenodd" d="M8.87 11.316a4.589 4.589 0 00-4.577 4.577v9.534a4.589 4.589 0 004.577 4.577h16.263a4.589 4.589 0 004.577-4.577v-.936h-1.942c-1.86 0-3.64-1.36-3.807-3.332a3.595 3.595 0 011.066-2.906 3.574 3.574 0 012.571-1.07h2.112v-1.29a4.589 4.589 0 00-4.577-4.577H8.87zm-6.077 4.577c0-3.347 2.73-6.077 6.077-6.077h16.263c3.347 0 6.077 2.73 6.077 6.077v2.04a.75.75 0 01-.75.75h-2.862c-.592 0-1.12.231-1.503.623l-.013.014a2.095 2.095 0 00-.627 1.701v.009c.09 1.085 1.114 1.961 2.313 1.961h2.692a.75.75 0 01.75.75v1.686c0 3.347-2.73 6.077-6.077 6.077H8.87c-3.347 0-6.077-2.73-6.077-6.077v-9.534z" fill="#fff"/><path fill-rule="evenodd" clip-rule="evenodd" d="M20.289 5.183c0-1.362-1.361-2.3-2.625-1.82L6.415 7.613a3.285 3.285 0 00-2.122 3.08v6.475a.75.75 0 01-1.5 0v-6.474A4.784 4.784 0 015.884 6.21l11.248-4.25c2.25-.852 4.657.816 4.657 3.223v5.383a.75.75 0 01-1.5 0V5.183zm7.305 13.501c-.592 0-1.12.23-1.502.623l-.014.013a2.095 2.095 0 00-.627 1.702v.008c.091 1.085 1.114 1.962 2.313 1.962h2.761a.704.704 0 00.683-.695v-2.919a.704.704 0 00-.683-.694h-2.93zm-2.57-.43a3.574 3.574 0 012.57-1.07h2.974a2.204 2.204 0 012.14 2.194v2.919a2.204 2.204 0 01-2.167 2.195h-2.777c-1.86 0-3.64-1.36-3.807-3.333a3.595 3.595 0 011.067-2.905zM9.168 16.588a.75.75 0 01.75-.75h9.917a.75.75 0 010 1.5H9.918a.75.75 0 01-.75-.75z" fill="#fff"/></svg>