<svg width="22" height="23" fill="none" xmlns="http://www.w3.org/2000/svg"><path d="M0 22.588l.685-2.507c.27-.99.545-1.981.807-2.974a.474.474 0 00-.035-.318C.4 14.87-.058 12.815.125 10.643c.263-3.11 1.63-5.665 4.045-7.645A10.456 10.456 0 018.82.806c5.1-1.016 10.008 1.596 12.11 6.186.785 1.716 1.082 3.52.936 5.393-.367 4.71-3.85 8.72-8.463 9.748-2.6.58-5.087.24-7.46-.964a.524.524 0 00-.34-.035c-1.775.459-3.549.924-5.322 1.388-.08.02-.159.037-.281.066zm2.634-2.604l.262-.064c.964-.252 1.928-.5 2.892-.762a.605.605 0 01.512.078c2.102 1.245 4.35 1.614 6.734 1.077 5.097-1.148 8.183-6.52 6.612-11.499-1.431-4.535-5.96-7.162-10.618-6.152a9.047 9.047 0 00-7.078 8.444c-.08 1.755.306 3.417 1.224 4.919.29.475.342.872.171 1.389-.274.835-.473 1.695-.711 2.57z" fill="#fff"/><path d="M5.434 9.04c.016-.912.371-1.661 1.015-2.286a.988.988 0 01.72-.299c.153 0 .307.023.459.008.321-.032.505.126.617.4.302.723.615 1.443.896 2.175a.606.606 0 01-.055.468c-.207.32-.434.627-.678.918-.146.181-.158.342-.04.54.89 1.493 2.126 2.58 3.747 3.22.22.087.398.052.549-.138.27-.34.55-.672.814-1.019.152-.2.329-.275.554-.171.78.367 1.555.734 2.325 1.12.081.04.156.176.16.272.03.81-.205 1.489-.927 1.961-.9.588-1.843.64-2.847.357-2.574-.722-4.486-2.332-6.021-4.457-.505-.703-.97-1.426-1.167-2.284-.062-.256-.083-.523-.121-.786z" fill="#fff"/></svg>