<svg width="16" height="39" fill="none" xmlns="http://www.w3.org/2000/svg"><path d="M0 .588h15.833v.792H0V.588zm0 4.75h15.833v.792H0v-.792zm0-2.375h15.833v1.583H0V2.963zm0 5.542h15.833v.791H0v-.791zm0 1.583h15.833v2.375H0v-2.375zm0 3.958h15.833v.792H0v-.792zm0 4.75h15.833v.792H0v-.792zm0-2.375h15.833v1.584H0V16.42zm0 5.542h15.833v.792H0v-.792zm0 1.583h15.833v2.375H0v-2.375zm0 15.042h15.833v-.792H0v.792zm0-4.75h15.833v-.792H0v.792zm0 2.375h15.833V34.63H0v1.583zm0-5.542h15.833v-.791H0v.791zm0-1.583h15.833v-2.375H0v2.375z" fill="#fff"/></svg>