<svg width="481" height="241" fill="none" xmlns="http://www.w3.org/2000/svg"><path d="M25 20.588c0-11.046 8.954-20 20-20h316c66.274 0 120 53.726 120 120s-53.726 120-120 120H145c-66.274 0-120-53.726-120-120v-100z" fill="#F8F8F9"/><path d="M97.075 193.225a4 4 0 01-4 4h-7.136a4 4 0 00-4 4v11.343a4 4 0 01-4 4h-20.09a4 4 0 01-4-4v-11.343a4 4 0 00-4-4H4a4 4 0 01-4-4V179.9c0-.842.266-1.664.76-2.346l43.742-60.378a4.001 4.001 0 013.239-1.653h20.095c3.24 0 5.135 3.649 3.273 6.299l-32.627 46.44c-1.862 2.651.034 6.3 3.273 6.3h8.968a4 4 0 004-4v-9.178a4 4 0 014-4h19.216a4 4 0 014 4v9.178a4 4 0 004 4h7.136a4 4 0 014 4v14.663zm50.821 25.364c-8.732 0-16.494-2.069-23.286-6.207-6.792-4.138-12.128-10.153-16.009-18.044-3.784-7.987-5.676-17.418-5.676-28.293 0-10.874 1.892-20.257 5.676-28.148 3.881-7.987 9.217-14.05 16.009-18.188 6.792-4.138 14.554-6.207 23.286-6.207 8.636 0 16.349 2.069 23.141 6.207 6.792 4.138 12.08 10.201 15.864 18.188 3.881 7.891 5.822 17.274 5.822 28.148 0 10.875-1.941 20.306-5.822 28.293-3.784 7.891-9.072 13.906-15.864 18.044-6.792 4.138-14.505 6.207-23.141 6.207zm0-23.385c4.852 0 8.684-2.31 11.498-6.929 2.911-4.715 4.366-12.125 4.366-22.23 0-10.104-1.455-17.466-4.366-22.085-2.814-4.716-6.646-7.073-11.498-7.073-4.948 0-8.877 2.357-11.788 7.073-2.814 4.619-4.221 11.981-4.221 22.085 0 10.105 1.407 17.515 4.221 22.23 2.911 4.619 6.84 6.929 11.788 6.929zm150.717-1.979a4 4 0 01-4 4h-7.136a4 4 0 00-4 4v11.343a4 4 0 01-4 4h-20.089a4 4 0 01-4-4v-11.343a4 4 0 00-4-4h-45.85a4 4 0 01-4-4V179.9c0-.842.266-1.664.761-2.346l43.741-60.378a4 4 0 013.239-1.653h20.095c3.239 0 5.135 3.649 3.273 6.299l-32.627 46.44c-1.862 2.651.034 6.3 3.273 6.3h8.968a4 4 0 004-4v-9.178a4 4 0 014-4h19.216a4 4 0 014 4v9.178a4 4 0 004 4h7.136a4 4 0 014 4v14.663zM259.33 96.758a4 4 0 01-4 4h-3.233a4 4 0 00-4 4v6.364a4 4 0 01-4 4H231.25a4 4 0 01-4-4v-6.364a4 4 0 00-4-4h-31.965a4 4 0 01-4-4v-8.531a4 4 0 01.76-2.346l31.959-44.138a4 4 0 013.24-1.654h12.404c3.239 0 5.135 3.648 3.273 6.298l-21.938 31.244c-1.861 2.65.035 6.299 3.274 6.299h3.641a4 4 0 004-4v-4.756a4 4 0 014-4h12.199a4 4 0 014 4v4.755a4 4 0 004 4h3.233a4 4 0 014 4v8.83zm37.718 19.865c-6.481 0-12.242-1.537-17.282-4.61-5.041-3.072-9.001-7.539-11.882-13.398-2.808-5.932-4.212-12.935-4.212-21.01 0-8.075 1.404-15.042 4.212-20.902 2.881-5.931 6.841-10.433 11.882-13.506 5.04-3.073 10.801-4.61 17.282-4.61 6.409 0 12.134 1.537 17.174 4.61 5.041 3.073 8.965 7.575 11.774 13.506 2.88 5.86 4.32 12.827 4.32 20.902 0 8.075-1.44 15.078-4.32 21.01-2.809 5.859-6.733 10.326-11.774 13.398-5.04 3.073-10.765 4.61-17.174 4.61zm0-17.365c3.6 0 6.445-1.715 8.533-5.145 2.16-3.502 3.24-9.004 3.24-16.508 0-7.503-1.08-12.97-3.24-16.4-2.088-3.502-4.933-5.252-8.533-5.252-3.672 0-6.589 1.75-8.749 5.252-2.088 3.43-3.132 8.897-3.132 16.4 0 7.504 1.044 13.006 3.132 16.508 2.16 3.43 5.077 5.145 8.749 5.145zm111.856-2.5a4 4 0 01-4 4h-3.234a4 4 0 00-4 4v6.364a4 4 0 01-4 4h-12.846a4 4 0 01-4-4v-6.364a4 4 0 00-4-4h-31.965a4 4 0 01-4-4v-8.531a4 4 0 01.76-2.346l31.958-44.138a4 4 0 013.24-1.654h12.404c3.239 0 5.135 3.648 3.274 6.298l-21.939 31.244c-1.861 2.65.035 6.299 3.274 6.299h3.642a4 4 0 004-4v-4.756a4 4 0 014-4h12.198a4 4 0 014 4v4.755a4 4 0 004 4h3.234a4 4 0 014 4v8.83zm-65.281 53.527a3.428 3.428 0 01-3.428 3.428 3.428 3.428 0 00-3.428 3.428v1.382a4 4 0 01-4 4h-4.723a4 4 0 01-4-4v-.81a4 4 0 00-4-4h-16.392a4 4 0 01-4-4v-3.19c0-.839.264-1.657.755-2.338l18.748-26.021a4.001 4.001 0 013.246-1.662h3.791c3.235 0 5.132 3.64 3.279 6.291l-10.868 15.554c-1.485 2.126.036 5.045 2.629 5.045a3.208 3.208 0 003.208-3.208v-.704a3.911 3.911 0 013.911-3.912h4.505a3.911 3.911 0 013.911 3.912v.483a3.429 3.429 0 003.428 3.429 3.427 3.427 0 013.428 3.428v3.465zm23.021 13.158c-3.956 0-7.472-.942-10.548-2.827-3.076-1.884-5.494-4.624-7.252-8.218-1.714-3.637-2.571-7.933-2.571-12.885 0-4.953.857-9.226 2.571-12.82 1.758-3.638 4.176-6.399 7.252-8.284 3.076-1.885 6.592-2.827 10.548-2.827 3.911 0 7.405.942 10.482 2.827 3.076 1.885 5.471 4.646 7.185 8.284 1.758 3.594 2.637 7.867 2.637 12.82 0 4.952-.879 9.248-2.637 12.885-1.714 3.594-4.109 6.334-7.185 8.218-3.077 1.885-6.571 2.827-10.482 2.827zm0-10.65c2.197 0 3.933-1.052 5.208-3.156 1.318-2.147 1.977-5.522 1.977-10.124s-.659-7.955-1.977-10.059c-1.275-2.148-3.011-3.222-5.208-3.222-2.242 0-4.022 1.074-5.34 3.222-1.275 2.104-1.912 5.457-1.912 10.059 0 4.602.637 7.977 1.912 10.124 1.318 2.104 3.098 3.156 5.34 3.156zm68.268-2.508a3.428 3.428 0 01-3.428 3.428 3.428 3.428 0 00-3.428 3.428v1.382a4 4 0 01-4 4h-4.723a4 4 0 01-4-4v-.81a4 4 0 00-4-4h-16.392a4 4 0 01-4-4v-3.19c0-.839.264-1.657.755-2.338l18.748-26.021a4.001 4.001 0 013.245-1.662h3.792c3.235 0 5.132 3.64 3.279 6.291l-10.868 15.554c-1.485 2.126.036 5.045 2.629 5.045a3.208 3.208 0 003.208-3.208v-.704a3.911 3.911 0 013.911-3.912h4.505a3.911 3.911 0 013.911 3.912v.483a3.429 3.429 0 003.428 3.429 3.427 3.427 0 013.428 3.428v3.465z" fill="#DDDDE4"/></svg>