<svg width="1024" height="1025" fill="none" xmlns="http://www.w3.org/2000/svg"><g clip-path="url(#clip0_878_600)"><path d="M797.889.588H215.081C96.314.588 0 96.883 0 215.628V798.52c0 124.849 101.238 226.07 226.111 226.07h63.422c102.616 0 169.78-107.522 124.676-199.879 0 0-254.868-460.997-278.109-498.806-.788-1.379-1.773-2.757-2.56-4.332-4.924-7.68.787-17.724 9.848-17.33 34.665 1.379 65.588-1.181 97.298 18.117 13.591 8.271 50.225 38.794 60.664 51.2 38.211 44.702 54.164 64.394 91.981 109.293 15.954 18.904 32.105 38.006 48.058 56.91 7.879 9.256 46.68 17.92 56.331 8.468 15.166-15.163 31.711-9.846 48.256-9.452 10.833.394 21.665.787 32.695 1.378 5.909.394 10.833 5.317 10.833 11.422.197 16.344.788 31.507-.394 46.67-.591 7.09-7.287 13.194-14.378 13.982-8.863.985-17.923 1.182-27.574.985-9.849 0-14.97 11.815-8.273 18.904 20.484 22.253 40.18 43.52 59.679 64.591 29.938 32.295 38.999 44.702 69.921 75.815 3.152 3.151 9.061 8.862 14.969 14.376 9.258 8.861 21.666 13.587 34.469 13.587 30.923 0 90.602-.393 119.949-.196 6.697 0 12.014 5.513 11.818 12.209 0 11.815.196 34.067.393 47.852 0 6.892-5.317 12.406-12.211 12.406h-41.559c-9.848-.394-15.166 11.422-8.666 18.905 8.863 10.24 17.332 19.692 25.802 28.751 18.711 20.283 38.801 39.581 56.724 60.652 12.606 14.375 26.984 14.375 43.923 13.194 1.575 0 3.348-.197 5.121-.394C982.047 956.453 1024 887.726 1024 809.351V226.853C1024 101.806 922.762.588 797.692.588h.197zm72.678 307.2H778.39v92.16c0 16.935-13.788 30.72-30.726 30.72-16.939 0-30.726-13.785-30.726-30.72v-92.16H624.76c-16.939 0-30.726-13.785-30.726-30.72s13.787-30.72 30.726-30.72h92.178v-92.16c0-16.935 13.787-30.72 30.726-30.72 16.938 0 30.726 13.785 30.726 30.72v92.16h92.177c16.939 0 30.726 13.785 30.726 30.72s-13.787 30.72-30.726 30.72z" fill="#FFAB2A"/></g><defs><clipPath id="clip0_878_600"><path fill="#fff" transform="translate(0 .588)" d="M0 0h1024v1024H0z"/></clipPath></defs></svg>