<svg width="249" height="39" fill="none" xmlns="http://www.w3.org/2000/svg"><g clip-path="url(#clip0_878_587)"><path d="M65.015 30.82c-1.915 0-3.676-.321-5.298-.957-1.615-.636-3.004-1.542-4.158-2.704-1.155-1.162-2.054-2.565-2.704-4.21-.65-1.643-.972-3.478-.972-5.516 0-2.04.321-3.873.972-5.518.65-1.644 1.549-3.047 2.704-4.209 1.154-1.162 2.535-2.068 4.158-2.704 1.615-.636 3.383-.957 5.298-.957 1.666 0 3.215.241 4.655.716a11.973 11.973 0 013.822 2.06 11.687 11.687 0 012.791 3.238c.746 1.264 1.28 2.682 1.6 4.246h-6.101c-.512-1.542-1.338-2.755-2.463-3.64-1.125-.884-2.565-1.322-4.304-1.322-1.126 0-2.149.19-3.055.57-.906.38-1.68.92-2.316 1.615-.636.701-1.133 1.55-1.491 2.558-.358 1.008-.534 2.119-.534 3.347 0 1.227.176 2.338.534 3.346.358 1.009.855 1.857 1.49 2.558a6.43 6.43 0 002.317 1.615c.906.38 1.922.57 3.055.57 1.739 0 3.171-.438 4.304-1.322 1.125-.885 1.951-2.098 2.463-3.64h6.102c-.322 1.572-.855 2.99-1.6 4.246a11.918 11.918 0 01-2.792 3.237c-1.118.9-2.39 1.579-3.822 2.061-1.433.475-2.99.716-4.655.716zm15.5-26.256h5.408v9.194h.146c.665-.665 1.483-1.257 2.463-1.783.979-.527 2.148-.79 3.493-.79.957 0 1.87.161 2.74.475a6.17 6.17 0 012.28 1.47c.65.664 1.162 1.497 1.542 2.498.38 1.009.57 2.185.57 3.53v11.144h-5.444v-10.15c0-.782-.11-1.425-.329-1.93a3.37 3.37 0 00-.862-1.213 3.102 3.102 0 00-1.177-.643 4.568 4.568 0 00-1.271-.182 4.47 4.47 0 00-1.528.277 3.71 3.71 0 00-1.344.863c-.395.394-.702.891-.936 1.49-.234.6-.35 1.33-.35 2.186v9.302h-5.408V4.564h.007zm30.377 26.256c-1.352 0-2.617-.234-3.808-.702-1.191-.467-2.221-1.125-3.091-1.987-.869-.855-1.556-1.886-2.061-3.092-.504-1.198-.752-2.55-.752-4.048 0-1.498.248-2.843.752-4.049a9.404 9.404 0 012.076-3.09 9.387 9.387 0 013.091-1.988 10.162 10.162 0 013.785-.702c1.345 0 2.602.22 3.771.665a8.711 8.711 0 013.033 1.915c.855.833 1.534 1.849 2.024 3.032.49 1.192.738 2.536.738 4.027v.628c0 .22-.015.432-.036.629 0 .22-.015.438-.037.665H106.66c.242 1.176.739 2.097 1.469 2.755.738.665 1.652.994 2.755.994.76 0 1.447-.161 2.061-.475a3.754 3.754 0 001.469-1.36h5.627a9.34 9.34 0 01-1.235 2.317 9.067 9.067 0 01-1.951 1.966 9.676 9.676 0 01-2.646 1.381c-.994.343-2.104.512-3.325.512l.008.007zm4.012-11.992c-.249-.906-.68-1.688-1.309-2.339-.628-.65-1.527-.972-2.703-.972-1.031 0-1.908.293-2.631.885-.724.592-1.235 1.395-1.527 2.426h8.17zm16.597 11.992c-1.425 0-2.733-.226-3.939-.679-1.198-.453-2.221-1.103-3.069-1.951-.848-.848-1.505-1.878-1.988-3.091-.475-1.213-.716-2.58-.716-4.1 0-1.52.241-2.886.716-4.1.475-1.212 1.14-2.243 1.988-3.09.848-.848 1.871-1.499 3.069-1.952 1.199-.453 2.514-.68 3.939-.68 1.103 0 2.178.147 3.215.44a9.08 9.08 0 012.872 1.38c.87.629 1.615 1.425 2.244 2.39.628.972 1.059 2.141 1.308 3.515h-5.627c-.417-1.009-.972-1.725-1.674-2.149a4.37 4.37 0 00-2.338-.643c-1.323 0-2.375.432-3.142 1.287-.775.855-1.162 2.06-1.162 3.602 0 1.542.387 2.74 1.162 3.588.774.848 1.819 1.272 3.142 1.272a4.5 4.5 0 002.338-.629c.702-.416 1.257-1.125 1.674-2.133h5.627c-.249 1.351-.68 2.513-1.308 3.493-.629.979-1.374 1.783-2.244 2.411a9.153 9.153 0 01-2.872 1.381 11.85 11.85 0 01-3.215.439zm11.671-26.256h5.408v13.79h2.243l5.335-6.657h6.474l-7.322 9.083 7.688 9.522h-6.658l-5.7-7.132h-2.06v7.132h-5.408V4.564zm24.171 5.116c-.928 0-1.703-.241-2.317-.716-.614-.475-.921-1.147-.921-2.002 0-.855.307-1.535.921-2.025.614-.49 1.389-.738 2.317-.738.928 0 1.702.249 2.316.738.614.49.921 1.162.921 2.025 0 .862-.307 1.527-.921 2.002-.614.475-1.388.716-2.316.716zm-2.719 2.024h5.408v18.613h-5.408v-18.62.007zm8.852-.009h5.408v2.06h.146c.665-.664 1.483-1.256 2.463-1.782.979-.526 2.148-.79 3.493-.79.957 0 1.87.161 2.74.476.87.321 1.63.81 2.28 1.468.65.665 1.162 1.498 1.542 2.5.38 1.008.57 2.185.57 3.53V30.3h-5.444V20.15c0-.782-.11-1.425-.329-1.93a3.375 3.375 0 00-.862-1.212 3.107 3.107 0 00-1.177-.643 4.57 4.57 0 00-1.271-.183c-.512 0-1.024.095-1.528.278-.504.182-.95.475-1.344.862-.395.395-.702.892-.936 1.49-.234.6-.351 1.33-.351 2.186V30.3h-5.407V11.695h.007z" fill="#15151B"/><path d="M201.699 30.31h-5.773V4.563h21.477v5.152h-15.704v5.664h14.162v4.962h-14.162v9.967zm23.794 0c-2.112 0-3.625-.468-4.545-1.396-.921-.928-1.382-2.448-1.382-4.56V4.564h5.408v19.344c0 .511.095.862.278 1.045.182.183.533.278 1.052.278h2.207v5.071h-3.018v.007zm4.501 2.39h3.018c1.25 0 2.112-.615 2.572-1.843l.256-.628-8.309-18.54h5.846l5.043 11.474h.182l4.524-11.473h5.7l-8.462 20.965c-.366.957-.76 1.761-1.177 2.412-.417.65-.906 1.162-1.469 1.542-.563.38-1.22.65-1.966.81-.745.162-1.658.242-2.74.242h-3.018v-4.962zM29.604.588H7.98A7.98 7.98 0 000 8.568v21.63a8.39 8.39 0 008.39 8.39h2.352c3.808 0 6.3-3.99 4.626-7.417 0 0-9.456-17.108-10.318-18.51-.03-.052-.066-.103-.095-.162a.417.417 0 01.365-.643c1.286.052 2.433-.043 3.61.673.504.307 1.864 1.44 2.25 1.9 1.418 1.658 2.01 2.39 3.414 4.055.591.702 1.19 1.41 1.783 2.112.292.344 1.732.665 2.09.315.562-.563 1.176-.366 1.79-.351.402.014.804.029 1.213.051a.43.43 0 01.402.424c.007.606.03 1.169-.015 1.732-.022.263-.27.49-.533.519-.329.036-.665.043-1.023.036a.418.418 0 00-.307.702c.76.825 1.49 1.615 2.214 2.397 1.11 1.198 1.447 1.658 2.594 2.813.117.117.337.329.556.533.343.33.804.505 1.279.505 1.147 0 3.361-.015 4.45-.008.248 0 .446.205.438.454 0 .438.008 1.264.015 1.775 0 .256-.197.46-.453.46h-1.542c-.365-.014-.563.424-.322.702.33.38.644.731.958 1.067.694.753 1.44 1.469 2.104 2.25.468.534 1.002.534 1.63.49.059 0 .124-.007.19-.014a7.96 7.96 0 003.888-6.847V8.984A8.393 8.393 0 0029.596.588h.008zm2.696 11.4h-3.42v3.42c0 .628-.511 1.14-1.14 1.14-.628 0-1.14-.512-1.14-1.14v-3.42h-3.42c-.628 0-1.14-.512-1.14-1.14 0-.629.512-1.14 1.14-1.14h3.42v-3.42a1.14 1.14 0 012.28 0v3.42h3.42a1.14 1.14 0 010 2.28z" fill="#FFAB2A"/></g><defs><clipPath id="clip0_878_587"><path fill="#fff" transform="translate(0 .588)" d="M0 0h248.827v38H0z"/></clipPath></defs></svg>