<svg width="250" height="39" fill="none" xmlns="http://www.w3.org/2000/svg"><g clip-path="url(#clip0_900_675)"><path d="M65.612 30.82c-1.914 0-3.675-.321-5.298-.957-1.615-.636-3.003-1.542-4.158-2.704-1.154-1.162-2.053-2.565-2.704-4.21-.65-1.643-.971-3.478-.971-5.516 0-2.04.321-3.873.971-5.518.65-1.644 1.55-3.047 2.704-4.209 1.155-1.162 2.536-2.068 4.158-2.704 1.615-.636 3.384-.957 5.298-.957 1.667 0 3.216.241 4.655.716a11.973 11.973 0 013.822 2.06 11.686 11.686 0 012.792 3.238c.745 1.264 1.279 2.682 1.6 4.246H72.38c-.511-1.542-1.337-2.755-2.462-3.64-1.126-.884-2.565-1.322-4.305-1.322-1.125 0-2.148.19-3.054.57-.906.38-1.681.92-2.317 1.615-.636.701-1.132 1.55-1.49 2.558-.359 1.008-.534 2.119-.534 3.347 0 1.227.175 2.338.534 3.346.358 1.009.855 1.857 1.49 2.558a6.43 6.43 0 002.317 1.615c.906.38 1.922.57 3.054.57 1.74 0 3.172-.438 4.305-1.322 1.125-.885 1.95-2.098 2.462-3.64h6.102c-.321 1.572-.855 2.99-1.6 4.246a11.917 11.917 0 01-2.792 3.237c-1.118.9-2.39 1.579-3.822 2.061-1.432.475-2.988.716-4.655.716zM81.113 4.564h5.407v9.194h.147c.665-.665 1.483-1.257 2.462-1.783.98-.527 2.149-.79 3.493-.79.958 0 1.871.161 2.74.475a6.17 6.17 0 012.28 1.47c.651.664 1.163 1.497 1.543 2.498.38 1.009.57 2.185.57 3.53v11.144H94.31v-10.15c0-.782-.11-1.425-.33-1.93a3.368 3.368 0 00-.862-1.213 3.103 3.103 0 00-1.176-.643 4.569 4.569 0 00-1.272-.182 4.47 4.47 0 00-1.527.277c-.504.183-.95.475-1.345.863-.394.394-.701.891-.935 1.49-.234.6-.35 1.33-.35 2.186v9.302h-5.408V4.564h.007zm30.376 26.256c-1.352 0-2.616-.234-3.807-.702-1.191-.467-2.222-1.125-3.091-1.987-.87-.855-1.557-1.886-2.061-3.092-.504-1.198-.753-2.55-.753-4.048 0-1.498.249-2.843.753-4.049a9.386 9.386 0 012.075-3.09 9.402 9.402 0 013.092-1.988 10.158 10.158 0 013.785-.702c1.345 0 2.601.22 3.771.665a8.707 8.707 0 013.032 1.915c.855.833 1.535 1.849 2.025 3.032.489 1.192.738 2.536.738 4.027v.628c0 .22-.015.432-.037.629 0 .22-.014.438-.036.665h-13.717c.241 1.176.738 2.097 1.469 2.755.738.665 1.652.994 2.755.994.76 0 1.447-.161 2.061-.475a3.76 3.76 0 001.469-1.36h5.627a9.374 9.374 0 01-1.235 2.317 9.05 9.05 0 01-1.952 1.966 9.656 9.656 0 01-2.645 1.381c-.994.343-2.105.512-3.325.512l.007.007zm4.012-11.992c-.248-.906-.679-1.688-1.308-2.339-.628-.65-1.527-.972-2.704-.972-1.03 0-1.907.293-2.631.885-.723.592-1.235 1.395-1.527 2.426h8.17zm16.598 11.992c-1.425 0-2.733-.226-3.939-.679-1.199-.453-2.222-1.103-3.069-1.951-.848-.848-1.506-1.878-1.988-3.091-.475-1.213-.716-2.58-.716-4.1 0-1.52.241-2.886.716-4.1.475-1.212 1.14-2.243 1.988-3.09.847-.848 1.87-1.499 3.069-1.952 1.198-.453 2.514-.68 3.939-.68 1.103 0 2.177.147 3.215.44a9.08 9.08 0 012.872 1.38c.87.629 1.615 1.425 2.243 2.39.629.972 1.06 2.141 1.308 3.515h-5.626c-.417-1.009-.972-1.725-1.674-2.149a4.37 4.37 0 00-2.338-.643c-1.323 0-2.375.432-3.143 1.287-.774.855-1.162 2.06-1.162 3.602 0 1.542.388 2.74 1.162 3.588.775.848 1.82 1.272 3.143 1.272a4.5 4.5 0 002.338-.629c.702-.416 1.257-1.125 1.674-2.133h5.626c-.248 1.351-.679 2.513-1.308 3.493-.628.979-1.373 1.783-2.243 2.411a9.164 9.164 0 01-2.872 1.381 11.85 11.85 0 01-3.215.439zM143.77 4.564h5.407v13.79h2.244l5.334-6.657h6.475l-7.322 9.083 7.687 9.522h-6.657l-5.7-7.132h-2.061v7.132h-5.407V4.564zm24.17 5.116c-.928 0-1.702-.241-2.316-.716-.614-.475-.921-1.147-.921-2.002 0-.855.307-1.535.921-2.025.614-.49 1.388-.738 2.316-.738.929 0 1.703.249 2.317.738.614.49.921 1.162.921 2.025 0 .862-.307 1.527-.921 2.002-.614.475-1.388.716-2.317.716zm-2.718 2.024h5.408v18.613h-5.408v-18.62.007zm8.852-.009h5.407v2.06h.147c.665-.664 1.483-1.256 2.462-1.782.979-.526 2.149-.79 3.493-.79.958 0 1.871.161 2.741.476a6.194 6.194 0 012.28 1.468c.65.665 1.162 1.498 1.542 2.5.38 1.008.57 2.185.57 3.53V30.3h-5.445V20.15c0-.782-.109-1.425-.328-1.93a3.377 3.377 0 00-.863-1.212 3.103 3.103 0 00-1.176-.643 4.572 4.572 0 00-1.272-.183c-.511 0-1.023.095-1.527.278a3.72 3.72 0 00-1.345.862c-.394.395-.701.892-.935 1.49-.234.6-.351 1.33-.351 2.186V30.3h-5.408V11.695h.008z" fill="#fff"/><path d="M202.297 30.31h-5.774V4.563h21.478v5.152h-15.704v5.664h14.162v4.962h-14.162v9.967zm23.794 0c-2.112 0-3.625-.468-4.546-1.396-.921-.928-1.381-2.448-1.381-4.56V4.564h5.408v19.344c0 .511.095.862.277 1.045.183.183.534.278 1.053.278h2.207v5.071h-3.018v.007zm4.501 2.39h3.018c1.249 0 2.112-.615 2.572-1.843l.256-.628-8.309-18.54h5.846l5.042 11.474h.183l4.524-11.473h5.7l-8.463 20.965c-.365.957-.76 1.761-1.176 2.412-.417.65-.906 1.162-1.469 1.542-.563.38-1.221.65-1.966.81-.745.162-1.659.242-2.74.242h-3.018v-4.962zM30.201.588H8.578a7.98 7.98 0 00-7.98 7.98v21.63a8.39 8.39 0 008.389 8.39h2.353c3.807 0 6.3-3.99 4.626-7.417 0 0-9.456-17.108-10.319-18.51-.029-.052-.065-.103-.095-.162a.417.417 0 01.366-.643c1.286.052 2.433-.043 3.61.673.504.307 1.863 1.44 2.25 1.9 1.418 1.658 2.01 2.39 3.413 4.055l1.783 2.112c.293.344 1.732.665 2.09.315.563-.563 1.177-.366 1.79-.351.402.014.804.029 1.214.051a.43.43 0 01.402.424c.007.606.029 1.169-.015 1.732-.022.263-.27.49-.533.519-.33.036-.666.043-1.024.036a.418.418 0 00-.306.702c.76.825 1.49 1.615 2.214 2.397 1.11 1.198 1.447 1.658 2.594 2.813.117.117.336.329.555.533.344.33.804.505 1.28.505 1.146 0 3.36-.015 4.45-.008.248 0 .445.205.438.454 0 .438.007 1.264.015 1.775 0 .256-.198.46-.453.46h-1.542c-.366-.014-.563.424-.322.702.329.38.643.731.957 1.067.695.753 1.44 1.469 2.105 2.25.468.534 1.001.534 1.63.49.058 0 .124-.007.19-.014A7.96 7.96 0 0038.59 30.6V8.984A8.393 8.393 0 0030.194.588h.007zm2.697 11.4h-3.42v3.42c0 .628-.512 1.14-1.14 1.14-.629 0-1.14-.512-1.14-1.14v-3.42h-3.42a1.14 1.14 0 010-2.28h3.42v-3.42a1.14 1.14 0 012.28 0v3.42h3.42c.628 0 1.14.511 1.14 1.14 0 .628-.512 1.14-1.14 1.14z" fill="#FFAB2A"/></g><defs><clipPath id="clip0_900_675"><path fill="#fff" transform="translate(.598 .588)" d="M0 0h248.827v38H0z"/></clipPath></defs></svg>