<?xml version="1.0" encoding="utf-8"?><svg xmlns="http://www.w3.org/2000/svg" xmlns:xlink="http://www.w3.org/1999/xlink"><symbol viewBox="0 0 54 55" id="airplane" xmlns="http://www.w3.org/2000/svg"><path d="M8.438 27.588 5.062 19.15h6.75l3.376 3.375h6.75L18.563 5.65h6.75l8.437 16.875 10.125.024a5.062 5.062 0 0 1 0 10.125l-10.125.024-8.438 16.875h-6.75l3.375-16.875h-6.75l-3.374 3.327h-6.75l3.375-8.437Z"/></symbol><symbol viewBox="0 0 30 31" id="airplane-outline" xmlns="http://www.w3.org/2000/svg"><path fill-rule="evenodd" clip-rule="evenodd" d="M23.375 5.95a2.312 2.312 0 0 0-2.402.39.505.505 0 0 1-.03.036l-3.716 3.93a.5.5 0 0 1-.535.127L6.68 6.792 4.523 8.948l7.93 5.287a.5.5 0 0 1 .076.77l-2.812 2.812a.5.5 0 0 1-.354.146H6.758L4.66 20.06l4.137 1.4a.5.5 0 0 1 .313.313l1.405 4.143 2.097-2.098v-2.605a.5.5 0 0 1 .164-.37l2.835-2.576a.5.5 0 0 1 .75.088l5.262 7.703 2.16-2.16-3.64-10.014a.5.5 0 0 1 .127-.535l3.811-3.579a.507.507 0 0 1 .042-.047 2.312 2.312 0 0 0-.75-3.774Zm1.616 4.308a3.314 3.314 0 0 0-4.845-4.512.503.503 0 0 0-.077.098l-3.343 3.537L6.722 5.743a.5.5 0 0 0-.525.117L3.385 8.672a.5.5 0 0 0 .076.77l7.93 5.286-2.235 2.235H6.551a.5.5 0 0 0-.354.147l-2.812 2.812a.5.5 0 0 0 .193.827l4.665 1.579 1.584 4.67a.5.5 0 0 0 .827.194l2.813-2.813a.5.5 0 0 0 .146-.353v-2.592l2.246-2.04 5.279 7.726a.5.5 0 0 0 .766.072l2.813-2.813a.5.5 0 0 0 .116-.524l-3.637-10.003 3.703-3.477a.5.5 0 0 0 .092-.117Z"/></symbol><symbol viewBox="0 0 18 19" id="arrow-down" xmlns="http://www.w3.org/2000/svg"><path fill-rule="evenodd" clip-rule="evenodd" d="M2.705 6.947a.5.5 0 0 1 .707 0l4.89 4.89a.99.99 0 0 0 1.393 0l4.89-4.89a.5.5 0 0 1 .707.707l-4.89 4.89a1.99 1.99 0 0 1-2.807 0l-4.89-4.89a.5.5 0 0 1 0-.707Z"/></symbol><symbol viewBox="0 0 20 21" id="arrow-left" xmlns="http://www.w3.org/2000/svg"><path fill-rule="evenodd" clip-rule="evenodd" d="M12.854 3.984a.5.5 0 0 1 0 .707l-5.897 5.897 5.897 5.896a.5.5 0 0 1-.708.707l-6.25-6.25a.5.5 0 0 1 0-.707l6.25-6.25a.5.5 0 0 1 .708 0Z"/></symbol><symbol viewBox="0 0 20 21" id="arrow-right" xmlns="http://www.w3.org/2000/svg"><path fill-rule="evenodd" clip-rule="evenodd" d="M7.146 3.984a.5.5 0 0 0 0 .707l5.897 5.897-5.897 5.896a.5.5 0 1 0 .708.707l6.25-6.25a.5.5 0 0 0 0-.707l-6.25-6.25a.5.5 0 0 0-.708 0Z"/></symbol><symbol viewBox="0 0 8 9" id="arrow-right-breadcrumbs" xmlns="http://www.w3.org/2000/svg"><path fill-rule="evenodd" clip-rule="evenodd" d="M2.615 1.594a.5.5 0 0 1 .707 0l2.174 2.173a1.162 1.162 0 0 1 0 1.64L3.322 7.581a.5.5 0 1 1-.707-.707L4.79 4.7a.162.162 0 0 0 0-.226L2.615 2.301a.5.5 0 0 1 0-.707Z"/></symbol><symbol viewBox="0 0 30 31" id="calendar" xmlns="http://www.w3.org/2000/svg"><path fill-rule="evenodd" clip-rule="evenodd" d="M10 2.588a.5.5 0 0 1 .5.5v3.75a.5.5 0 0 1-1 0v-3.75a.5.5 0 0 1 .5-.5Zm10 0a.5.5 0 0 1 .5.5v3.75a.5.5 0 0 1-1 0v-3.75a.5.5 0 0 1 .5-.5ZM3.875 11.951a.5.5 0 0 1 .5-.5h21.25a.5.5 0 1 1 0 1H4.375a.5.5 0 0 1-.5-.5Z"/><path fill-rule="evenodd" clip-rule="evenodd" d="M5.6 7.022c-.9.97-1.35 2.393-1.35 4.19v10.626c0 1.798.45 3.22 1.35 4.19.896.965 2.308 1.56 4.4 1.56h10c2.092 0 3.504-.595 4.4-1.56.9-.97 1.35-2.392 1.35-4.19V11.213c0-1.798-.45-3.22-1.35-4.191-.896-.964-2.308-1.56-4.4-1.56H10c-2.092 0-3.504.596-4.4 1.56Zm-.732-.68c1.136-1.224 2.85-1.88 5.132-1.88h10c2.283 0 3.996.656 5.132 1.88 1.13 1.216 1.618 2.92 1.618 4.87v10.626c0 1.951-.488 3.654-1.618 4.871-1.136 1.224-2.85 1.879-5.132 1.879H10c-2.283 0-3.996-.655-5.132-1.879-1.13-1.217-1.618-2.92-1.618-4.871V11.213c0-1.952.488-3.655 1.618-4.872Z"/><path fill-rule="evenodd" clip-rule="evenodd" d="M18.867 17.713a.75.75 0 0 1 .75-.75h.011a.75.75 0 0 1 0 1.5h-.01a.75.75 0 0 1-.75-.75Zm0 3.75a.75.75 0 0 1 .75-.75h.011a.75.75 0 0 1 0 1.5h-.01a.75.75 0 0 1-.75-.75Zm-4.621-3.75a.75.75 0 0 1 .75-.75h.011a.75.75 0 0 1 0 1.5h-.01a.75.75 0 0 1-.75-.75Zm0 3.75a.75.75 0 0 1 .75-.75h.011a.75.75 0 0 1 0 1.5h-.01a.75.75 0 0 1-.75-.75Zm-4.629-3.75a.75.75 0 0 1 .75-.75h.011a.75.75 0 0 1 0 1.5h-.01a.75.75 0 0 1-.75-.75Zm0 3.75a.75.75 0 0 1 .75-.75h.011a.75.75 0 0 1 0 1.5h-.01a.75.75 0 0 1-.75-.75Z"/></symbol><symbol viewBox="0 0 18 19" id="check-circle" xmlns="http://www.w3.org/2000/svg"><path d="M9 16.338a6.75 6.75 0 1 0 0-13.5 6.75 6.75 0 0 0 0 13.5Z"/><path fill-rule="evenodd" clip-rule="evenodd" d="M9 3.338a6.25 6.25 0 1 0 0 12.5 6.25 6.25 0 0 0 0-12.5Zm-7.25 6.25a7.25 7.25 0 1 1 14.5 0 7.25 7.25 0 0 1-14.5 0Z"/><path fill-rule="evenodd" clip-rule="evenodd" d="M12.817 7.21a1 1 0 0 1-.033 1.414L8.66 12.56a1 1 0 0 1-1.38 0l-2.063-1.969a1 1 0 0 1 1.38-1.446l1.373 1.31 3.434-3.279a1 1 0 0 1 1.414.033Z"/></symbol><symbol viewBox="0 0 34 35" id="copy-success" xmlns="http://www.w3.org/2000/svg"><path fill-rule="evenodd" clip-rule="evenodd" d="M12.413 4.503c1.325-1.325 3.308-1.831 5.86-1.831h5.95c2.554 0 4.536.506 5.861 1.831 1.325 1.325 1.831 3.307 1.831 5.86v5.95c0 2.554-.506 4.536-1.83 5.861-1.326 1.325-3.308 1.831-5.861 1.831h-1.559a.75.75 0 0 1-.75-.75v-4.392c0-2.405-.485-3.893-1.391-4.8-.907-.905-2.395-1.391-4.8-1.391h-4.392a.75.75 0 0 1-.75-.75v-1.559c0-2.553.506-4.535 1.831-5.86Zm1.06 1.06c-.905.907-1.391 2.395-1.391 4.8v.809h3.642c2.553 0 4.535.506 5.86 1.831 1.325 1.325 1.831 3.307 1.831 5.86v3.642h.809c2.405 0 3.893-.485 4.8-1.392.906-.906 1.391-2.394 1.391-4.8v-5.95c0-2.405-.485-3.893-1.391-4.8-.907-.905-2.395-1.391-4.8-1.391h-5.95c-2.406 0-3.894.486-4.8 1.392Z"/><path fill-rule="evenodd" clip-rule="evenodd" d="M3.913 13.003c1.325-1.325 3.308-1.831 5.86-1.831h5.95c2.554 0 4.536.506 5.861 1.831 1.325 1.325 1.831 3.307 1.831 5.86v5.95c0 2.554-.506 4.536-1.83 5.861-1.326 1.325-3.308 1.831-5.861 1.831h-5.95c-2.553 0-4.536-.506-5.86-1.83-1.326-1.326-1.832-3.308-1.832-5.861v-5.95c0-2.554.506-4.536 1.831-5.861Zm1.06 1.06c-.905.907-1.391 2.395-1.391 4.8v5.95c0 2.406.486 3.894 1.392 4.8.906.907 2.394 1.392 4.8 1.392h5.95c2.405 0 3.893-.485 4.8-1.392.906-.906 1.391-2.394 1.391-4.8v-5.95c0-2.405-.485-3.893-1.391-4.8-.907-.905-2.395-1.391-4.8-1.391h-5.95c-2.405 0-3.894.486-4.8 1.392Z"/><path fill-rule="evenodd" clip-rule="evenodd" d="M17.416 18.545a.75.75 0 0 1 .002 1.06l-5.511 5.526a.75.75 0 0 1-1.062 0L8.083 22.37a.75.75 0 0 1 1.06-1.06l2.232 2.23 4.98-4.992a.75.75 0 0 1 1.061-.002Z"/></symbol><symbol viewBox="0 0 34 35" id="edit" xmlns="http://www.w3.org/2000/svg"><path fill-rule="evenodd" clip-rule="evenodd" d="M4.604 5.192c1.803-1.804 4.53-2.522 8.145-2.522h2.833a.75.75 0 0 1 0 1.5h-2.833c-3.468 0-5.7.698-7.085 2.082C4.28 7.637 3.582 9.87 3.582 13.337v8.5c0 3.467.698 5.7 2.082 7.084 1.385 1.384 3.617 2.082 7.085 2.082h8.5c3.467 0 5.7-.698 7.084-2.082 1.384-1.384 2.082-3.617 2.082-7.084v-2.834a.75.75 0 1 1 1.5 0v2.834c0 3.615-.718 6.341-2.521 8.145-1.804 1.803-4.53 2.521-8.145 2.521h-8.5c-3.616 0-6.342-.718-8.145-2.521-1.803-1.804-2.522-4.53-2.522-8.145v-8.5c0-3.616.719-6.342 2.522-8.145Z"/><path fill-rule="evenodd" clip-rule="evenodd" d="M25.807 2.334c1.453-.143 2.93.488 4.443 2.001 1.513 1.513 2.144 2.99 2.001 4.443-.139 1.413-.994 2.61-2 3.616L19.077 23.566c-.29.28-.678.534-1.061.726-.382.192-.82.355-1.224.413l-4.265.609h-.003c-.97.134-1.873-.132-2.5-.757-.628-.625-.896-1.528-.753-2.501v-.002l.608-4.259v-.001c.058-.411.22-.852.413-1.236.193-.384.449-.773.735-1.06L22.19 4.335c1.007-1.006 2.203-1.862 3.616-2Zm.147 1.493c-.896.088-1.782.648-2.702 1.569L12.089 16.559c-.14.139-.309.38-.456.673a2.69 2.69 0 0 0-.267.77v.003l-.61 4.264v.003c-.084.57.08.977.327 1.223.248.246.661.412 1.235.334h.002l4.26-.61c.19-.027.469-.119.763-.267a2.97 2.97 0 0 0 .688-.46L29.19 11.333c.92-.92 1.48-1.806 1.568-2.702.085-.856-.248-1.915-1.569-3.235-1.32-1.32-2.379-1.653-3.235-1.57Z"/><path fill-rule="evenodd" clip-rule="evenodd" d="M20.919 5.745a.75.75 0 0 1 .924.52 9.371 9.371 0 0 0 6.481 6.479.75.75 0 0 1-.409 1.443A10.871 10.871 0 0 1 20.4 6.669a.75.75 0 0 1 .52-.924Z"/></symbol><symbol viewBox="0 0 34 35" id="like" xmlns="http://www.w3.org/2000/svg"><path fill-rule="evenodd" clip-rule="evenodd" d="M20.77 2.777c1.598.54 2.685 2.297 2.33 3.962l-.705 4.506c-.072.524.27.84.675.84h5.667c1.265 0 2.355.51 3.012 1.402.659.894.813 2.078.39 3.274l-3.39 10.308c-.268 1.04-.953 1.913-1.783 2.52-.837.613-1.874.995-2.904.995h-5.384a6.284 6.284 0 0 1-1.658-.241c-.525-.15-1.11-.396-1.526-.791l-4.358-3.375.918-1.186 4.43 3.43.033.033c.15.15.466.318.915.447.432.123.894.183 1.247.183h5.383c.67 0 1.403-.255 2.018-.705.615-.45 1.06-1.055 1.22-1.702l.008-.026 3.41-10.377.004-.009c.28-.784.15-1.438-.18-1.888-.335-.454-.946-.793-1.805-.793H23.07c-1.293 0-2.367-1.1-2.159-2.556l.001-.01.713-4.556.005-.024c.194-.873-.41-1.93-1.347-2.242l-.013-.004-.013-.005c-.37-.139-.824-.127-1.264.024-.445.153-.791.42-.965.681l-.002.002-5.808 8.642-1.245-.837 5.806-8.639.001-.001c.393-.588 1.037-1.03 1.726-1.266.689-.237 1.504-.297 2.264-.016Z"/><path fill-rule="evenodd" clip-rule="evenodd" d="M5.553 10.163c-.234.216-.432.631-.432 1.538v13.884c0 .907.198 1.322.432 1.538.249.23.717.403 1.651.403h1.417c.934 0 1.403-.173 1.652-.403.234-.216.431-.631.431-1.538V11.7c0-.907-.197-1.322-.431-1.538-.25-.23-.718-.403-1.652-.403H7.204c-.934 0-1.402.173-1.651.403ZM4.535 9.061c.672-.62 1.62-.801 2.67-.801H8.62c1.05 0 1.997.18 2.67.8.686.635.913 1.565.913 2.641v13.884c0 1.076-.227 2.007-.914 2.64-.672.62-1.62.801-2.669.801H7.204c-1.049 0-1.997-.18-2.669-.8-.686-.634-.914-1.565-.914-2.641V11.7c0-1.076.228-2.006.914-2.64Z"/></symbol><symbol viewBox="0 0 48 37" id="quote" xmlns="http://www.w3.org/2000/svg"><path d="M0 34.588a2 2 0 0 0 2 2h16.92a2 2 0 0 0 2-2V2.792c0-1.777-2.143-2.671-3.406-1.422L.594 18.11A2 2 0 0 0 0 19.532v15.056ZM27.673 18.11a2 2 0 0 0-.593 1.422v15.056a2 2 0 0 0 2 2H46a2 2 0 0 0 2-2V2.792c0-1.777-2.144-2.671-3.407-1.422l-16.92 16.74Z"/></symbol><symbol viewBox="0 0 22 23" id="telegram" xmlns="http://www.w3.org/2000/svg"><g clip-path="url(#ma)"><path fill-rule="evenodd" clip-rule="evenodd" d="M22 11.588c0 6.075-4.925 11-11 11s-11-4.925-11-11 4.925-11 11-11 11 4.925 11 11Zm-10.606-2.88a523.96 523.96 0 0 0-6.415 2.764c-.52.207-.793.41-.818.607-.042.335.377.467.948.647l.24.076c.562.183 1.318.396 1.71.405.357.007.754-.14 1.193-.44 2.996-2.023 4.543-3.046 4.64-3.068.069-.015.164-.035.228.022.064.058.058.166.051.195-.041.177-1.687 1.707-2.539 2.498-.265.247-.453.422-.492.462a8.84 8.84 0 0 1-.258.256c-.522.503-.914.88.021 1.496.45.296.809.541 1.167.785.392.267.783.533 1.288.864.129.085.252.172.372.258.455.325.865.616 1.37.57.295-.027.598-.303.752-1.128.365-1.948 1.081-6.169 1.247-7.908a1.937 1.937 0 0 0-.019-.433.463.463 0 0 0-.156-.298c-.132-.107-.336-.13-.427-.128-.413.007-1.048.228-4.103 1.499Z"/></g><defs><clipPath id="ma"><path transform="translate(0 .588)" d="M0 0h22v22H0z"/></clipPath></defs></symbol><symbol viewBox="0 0 24 25" id="tick-square" xmlns="http://www.w3.org/2000/svg"><path fill-rule="evenodd" clip-rule="evenodd" d="M3.271 3.86C4.536 2.594 6.451 2.087 9 2.087h6c2.55 0 4.464.507 5.729 1.771C21.993 5.124 22.5 7.04 22.5 9.588v6c0 2.55-.507 4.464-1.771 5.728-1.265 1.265-3.18 1.772-5.729 1.772H9c-2.55 0-4.464-.507-5.729-1.772C2.007 20.052 1.5 18.137 1.5 15.588v-6c0-2.55.507-4.464 1.771-5.729Zm.708.706C2.993 5.552 2.5 7.137 2.5 9.588v6c0 2.45.493 4.036 1.479 5.021.985.986 2.57 1.479 5.021 1.479h6c2.45 0 4.036-.493 5.021-1.479.986-.985 1.479-2.57 1.479-5.021v-6c0-2.45-.493-4.036-1.479-5.022-.985-.985-2.57-1.478-5.021-1.478H9c-2.45 0-4.036.493-5.021 1.478Z"/><path fill-rule="evenodd" clip-rule="evenodd" d="M16.604 9.405a.5.5 0 0 1 0 .707l-5.67 5.66a.5.5 0 0 1-.708 0l-2.83-2.83a.5.5 0 1 1 .708-.708l2.476 2.477 5.317-5.307a.5.5 0 0 1 .707 0Z"/></symbol><symbol viewBox="0 0 34 35" id="ticket" xmlns="http://www.w3.org/2000/svg"><path fill-rule="evenodd" clip-rule="evenodd" d="M3.718 7.14c1.301-1.3 3.37-1.636 6.197-1.636h14.167c2.828 0 4.896.335 6.197 1.636 1.301 1.301 1.636 3.37 1.636 6.197v1.417a.75.75 0 0 1-.75.75 2.793 2.793 0 0 0-2.791 2.792c0 1.54 1.25 2.791 2.791 2.791a.75.75 0 0 1 .75.75c0 2.828-.335 4.896-1.636 6.197-1.301 1.301-3.369 1.637-6.197 1.637H9.915c-2.828 0-4.896-.336-6.197-1.637-1.3-1.3-1.636-3.369-1.636-6.197v-.708a.75.75 0 0 1 .75-.75 2.793 2.793 0 0 0 0-5.583.75.75 0 0 1-.75-.75v-.709c0-2.828.335-4.896 1.636-6.197ZM4.78 8.2c-.824.825-1.197 2.299-1.197 5.137v.024a4.294 4.294 0 0 1 3.542 4.226 4.294 4.294 0 0 1-3.542 4.227v.023c0 2.839.373 4.313 1.197 5.137.824.824 2.298 1.197 5.136 1.197h14.167c2.839 0 4.312-.373 5.136-1.197.756-.756 1.132-2.056 1.19-4.454a4.295 4.295 0 0 1-3.534-4.224 4.294 4.294 0 0 1 3.541-4.227v-.732c0-2.838-.373-4.312-1.197-5.136-.824-.824-2.297-1.197-5.136-1.197H9.915c-2.838 0-4.312.373-5.136 1.197Z"/><path fill-rule="evenodd" clip-rule="evenodd" d="M14.164 5.504a.75.75 0 0 1 .75.75v2.833a.75.75 0 0 1-1.5 0V6.254a.75.75 0 0 1 .75-.75Zm0 8.5a.75.75 0 0 1 .75.75v5.667a.75.75 0 0 1-1.5 0v-5.667a.75.75 0 0 1 .75-.75Zm0 11.333a.75.75 0 0 1 .75.75v2.834a.75.75 0 0 1-1.5 0v-2.834a.75.75 0 0 1 .75-.75Z"/></symbol><symbol viewBox="0 0 14 15" id="trash" xmlns="http://www.w3.org/2000/svg"><path fill-rule="evenodd" clip-rule="evenodd" d="M2.89 3.46a34.958 34.958 0 0 1 3.515-.177c1.965 0 3.936.1 5.894.294a.5.5 0 0 1-.098.995 58.825 58.825 0 0 0-5.796-.289 33.97 33.97 0 0 0-3.415.173l-1.19.116a.5.5 0 1 1-.098-.995l1.19-.116Z"/><path fill-rule="evenodd" clip-rule="evenodd" d="m5.579 2.805-.129.764a.5.5 0 1 1-.986-.165l.128-.765.008-.043c.04-.24.1-.613.35-.896.295-.334.74-.446 1.285-.446h1.528c.553 0 .997.121 1.289.458.25.288.31.661.348.898l.005.036.128.757a.5.5 0 0 1-.986.167l-.128-.761c-.05-.304-.08-.392-.122-.442-.014-.016-.101-.113-.534-.113H6.235c-.44 0-.524.095-.535.107-.04.045-.068.127-.122.444ZM2.972 5.419a.5.5 0 0 1 .53.467l.38 5.873c.016.235.03.417.062.575a.72.72 0 0 0 .121.31c.08.105.299.276 1.062.276h3.745c.764 0 .982-.17 1.062-.275a.737.737 0 0 0 .122-.31 5 5 0 0 0 .062-.577l.379-5.872a.5.5 0 0 1 .998.064l-.38 5.877v.013c-.016.218-.033.463-.08.691a1.72 1.72 0 0 1-.308.723c-.369.48-.99.666-1.855.666H5.127c-.864 0-1.486-.186-1.855-.666a1.72 1.72 0 0 1-.308-.723 5.496 5.496 0 0 1-.079-.691v-.016l-.38-5.874a.5.5 0 0 1 .467-.531Z"/><path fill-rule="evenodd" clip-rule="evenodd" d="M5.527 10.213a.5.5 0 0 1 .5-.5H7.97a.5.5 0 1 1 0 1H6.027a.5.5 0 0 1-.5-.5Zm-.484-2.334a.5.5 0 0 1 .5-.5H8.46a.5.5 0 1 1 0 1H5.543a.5.5 0 0 1-.5-.5Z"/></symbol><symbol viewBox="0 0 34 35" id="wallet" xmlns="http://www.w3.org/2000/svg"><path fill-rule="evenodd" clip-rule="evenodd" d="M8.87 11.316a4.589 4.589 0 0 0-4.577 4.577v9.534a4.589 4.589 0 0 0 4.577 4.577h16.263a4.589 4.589 0 0 0 4.577-4.577v-.936h-1.942c-1.86 0-3.64-1.36-3.807-3.332a3.595 3.595 0 0 1 1.066-2.906 3.574 3.574 0 0 1 2.571-1.07h2.112v-1.29a4.589 4.589 0 0 0-4.577-4.577H8.87Zm-6.077 4.577c0-3.347 2.73-6.077 6.077-6.077h16.263c3.347 0 6.077 2.73 6.077 6.077v2.04a.75.75 0 0 1-.75.75h-2.862c-.592 0-1.12.231-1.503.623l-.013.014a2.095 2.095 0 0 0-.627 1.701v.009c.09 1.085 1.114 1.961 2.313 1.961h2.692a.75.75 0 0 1 .75.75v1.686c0 3.347-2.73 6.077-6.077 6.077H8.87c-3.347 0-6.077-2.73-6.077-6.077v-9.534Z"/><path fill-rule="evenodd" clip-rule="evenodd" d="M20.289 5.183c0-1.362-1.361-2.3-2.625-1.82L6.415 7.613a3.285 3.285 0 0 0-2.122 3.08v6.475a.75.75 0 0 1-1.5 0v-6.474A4.784 4.784 0 0 1 5.884 6.21l11.248-4.25c2.25-.852 4.657.816 4.657 3.223v5.383a.75.75 0 0 1-1.5 0V5.183Zm7.305 13.501c-.592 0-1.12.23-1.502.623l-.014.013a2.095 2.095 0 0 0-.627 1.702v.008c.091 1.085 1.114 1.962 2.313 1.962h2.761a.704.704 0 0 0 .683-.695v-2.919a.704.704 0 0 0-.683-.694h-2.93Zm-2.57-.43a3.574 3.574 0 0 1 2.57-1.07h2.974a2.204 2.204 0 0 1 2.14 2.194v2.919a2.204 2.204 0 0 1-2.167 2.195h-2.777c-1.86 0-3.64-1.36-3.807-3.333a3.595 3.595 0 0 1 1.067-2.905ZM9.168 16.588a.75.75 0 0 1 .75-.75h9.917a.75.75 0 0 1 0 1.5H9.918a.75.75 0 0 1-.75-.75Z"/></symbol><symbol viewBox="0 0 22 23" id="whatsapp" xmlns="http://www.w3.org/2000/svg"><path d="m0 22.588.685-2.507c.27-.99.545-1.981.807-2.974a.474.474 0 0 0-.035-.318C.4 14.87-.058 12.815.125 10.643c.263-3.11 1.63-5.665 4.045-7.645A10.456 10.456 0 0 1 8.82.806c5.1-1.016 10.008 1.596 12.11 6.186.785 1.716 1.082 3.52.936 5.393-.367 4.71-3.85 8.72-8.463 9.748-2.6.58-5.087.24-7.46-.964a.524.524 0 0 0-.34-.035c-1.775.459-3.549.924-5.322 1.388-.08.02-.159.037-.281.066Zm2.634-2.604.262-.064c.964-.252 1.928-.5 2.892-.762a.605.605 0 0 1 .512.078c2.102 1.245 4.35 1.614 6.734 1.077 5.097-1.148 8.183-6.52 6.612-11.499-1.431-4.535-5.96-7.162-10.618-6.152a9.047 9.047 0 0 0-7.078 8.444c-.08 1.755.306 3.417 1.224 4.919.29.475.342.872.171 1.389-.274.835-.473 1.695-.711 2.57Z"/><path d="M5.434 9.04c.016-.912.371-1.661 1.015-2.286a.988.988 0 0 1 .72-.299c.153 0 .307.023.459.008.321-.032.505.126.617.4.302.723.615 1.443.896 2.175a.606.606 0 0 1-.055.468c-.207.32-.434.627-.678.918-.146.181-.158.342-.04.54.89 1.493 2.126 2.58 3.747 3.22.22.087.398.052.549-.138.27-.34.55-.672.814-1.019.152-.2.329-.275.554-.171.78.367 1.555.734 2.325 1.12.081.04.156.176.16.272.03.81-.205 1.489-.927 1.961-.9.588-1.843.64-2.847.357-2.574-.722-4.486-2.332-6.021-4.457-.505-.703-.97-1.426-1.167-2.284-.062-.256-.083-.523-.121-.786Z"/></symbol></svg>